<?xml version="1.0" encoding="utf-8"?>
<!-- Generator: Adobe Illustrator 21.0.0, SVG Export Plug-In . SVG Version: 6.00 Build 0)  -->
<svg version="1.1" id="Layer_1" xmlns="http://www.w3.org/2000/svg" xmlns:xlink="http://www.w3.org/1999/xlink" x="0px" y="0px"
	 viewBox="0 0 612 612" style="enable-background:new 0 0 612 612;" xml:space="preserve">
<style type="text/css">
	.st0{fill:#DD851B;}
	.st1{fill:#FFFFFF;}
	.st2{font-family:'TektonPro-Bold';}
	.st3{font-size:304.6472px;}
</style>
<g id="solid" inkscape:version="0.48.1 r9760" sodipodi:docname="twitter_bootstrap_logo.svg" xmlns:cc="http://creativecommons.org/ns#" xmlns:dc="http://purl.org/dc/elements/1.1/" xmlns:inkscape="http://www.inkscape.org/namespaces/inkscape" xmlns:rdf="http://www.w3.org/1999/02/22-rdf-syntax-ns#" xmlns:sodipodi="http://sodipodi.sourceforge.net/DTD/sodipodi-0.dtd" xmlns:svg="http://www.w3.org/2000/svg">
	<path id="bg" class="st0" d="M612,510c0,56.1-45.9,102-102,102H102C45.9,612,0,566.1,0,510V102C0,45.9,45.9,0,102,0h408
		c56.1,0,102,45.9,102,102V510z"/>
	<g>
		<ellipse class="st1" cx="317.1" cy="460" rx="202.5" ry="41"/>
		
			<ellipse transform="matrix(9.014505e-02 -0.9959 0.9959 9.014505e-02 2.0055 726.5099)" class="st1" cx="398.6" cy="362.2" rx="44" ry="144.9"/>
		
			<ellipse transform="matrix(0.9973 -7.392383e-02 7.392383e-02 0.9973 -11.2807 31.2505)" class="st1" cx="416.5" cy="168" rx="81.4" ry="26.4"/>
		
			<ellipse transform="matrix(9.014505e-02 -0.9959 0.9959 9.014505e-02 118.0126 653.2308)" class="st1" cx="416.5" cy="262" rx="41" ry="113.5"/>
	</g>
	<text transform="matrix(1.1299 0 0 1 80.103 336.7236)" class="st1 st2 st3">Ş</text>
</g>
</svg>
